<?xml version="1.0" standalone="no"?>
<!DOCTYPE svg PUBLIC "-//W3C//DTD SVG 20010904//EN"
 "http://www.w3.org/TR/2001/REC-SVG-20010904/DTD/svg10.dtd">
<svg version="1.0" xmlns="http://www.w3.org/2000/svg"
 width="700.000000pt" height="700.000000pt" viewBox="0 0 700.000000 700.000000"
 preserveAspectRatio="xMidYMid meet">
<metadata>
Created by potrace 1.14, written by Peter Selinger 2001-2017
</metadata>
<g transform="translate(0.000000,700.000000) scale(0.100000,-0.100000)"
fill="#000000" stroke="none">
<path d="M2160 6985 c-103 -22 -220 -88 -311 -173 -98 -92 -127 -131 -265
-356 l-111 -181 -164 -6 c-174 -7 -258 -21 -400 -69 -197 -66 -360 -168 -515
-324 -198 -199 -311 -408 -371 -686 -17 -80 -18 -189 -18 -2055 l0 -1970 23
-104 c60 -268 171 -471 362 -661 199 -198 418 -317 700 -377 81 -17 202 -18
2410 -18 2204 0 2329 1 2409 18 287 62 504 179 701 376 192 194 302 394 362
662 l23 104 0 1970 c0 1866 -1 1975 -18 2055 -57 267 -170 482 -354 671 -185
191 -391 309 -657 375 -83 21 -136 27 -296 32 l-195 7 -105 173 c-134 220
-177 277 -271 366 -89 84 -185 138 -295 166 -75 19 -114 20 -1328 19 -1027 0
-1263 -3 -1316 -14z m3932 -1337 c286 -131 286 -522 -1 -657 -48 -22 -70 -26
-146 -26 -82 0 -97 3 -157 33 -205 100 -267 356 -130 537 43 58 114 109 181
130 70 22 183 15 253 -17z m-3338 -698 c224 -44 411 -120 611 -251 61 -39 115
-73 121 -76 7 -2 61 28 120 67 201 133 391 214 610 261 140 30 417 37 572 15
270 -40 543 -154 762 -320 36 -27 115 -99 175 -160 317 -319 478 -735 462
-1191 -9 -244 -56 -431 -162 -653 -99 -206 -177 -303 -465 -580 -184 -176
-225 -211 -262 -221 -115 -32 -225 69 -203 186 6 33 38 69 254 283 170 168
262 268 294 317 250 382 294 837 119 1241 -150 347 -432 606 -793 726 -136 46
-265 66 -419 66 -328 0 -615 -105 -858 -314 -129 -110 -139 -116 -194 -116
-61 0 -75 7 -166 87 -257 223 -554 336 -887 336 -363 0 -675 -130 -931 -387
-162 -162 -250 -303 -319 -509 -52 -156 -68 -273 -62 -457 6 -161 29 -285 77
-410 37 -95 112 -230 173 -314 37 -51 275 -297 638 -661 511 -513 578 -584
584 -618 25 -134 -108 -239 -230 -182 -50 25 -1168 1152 -1248 1260 -155 209
-257 447 -304 705 -23 131 -23 410 0 540 66 361 222 649 488 905 58 55 138
123 179 151 218 149 472 251 705 283 44 6 94 13 110 15 76 11 344 -3 449 -24z
m1007 -1384 c53 -13 115 -34 138 -45 l41 -21 0 -216 c0 -132 -4 -214 -9 -212
-6 2 -183 102 -395 223 -235 134 -380 223 -373 227 25 16 174 59 237 68 100
14 253 4 361 -24z m-557 -229 c98 -57 179 -107 179 -112 0 -13 -762 -449 -770
-441 -10 10 23 146 56 233 35 90 90 180 159 262 50 58 169 161 186 161 6 -1
91 -47 190 -103z m974 -5 c150 -148 260 -372 265 -541 l2 -55 -145 -84 c-80
-46 -164 -95 -187 -108 l-43 -25 0 451 c0 520 -12 480 108 362z m-1188 -942
c0 -521 13 -481 -113 -357 -127 126 -216 288 -252 456 -29 138 -41 121 173
243 103 59 188 108 190 108 1 0 2 -203 2 -450z m1440 85 c-43 -186 -165 -383
-310 -501 -37 -30 -70 -54 -74 -54 -3 0 -90 48 -192 106 -111 64 -182 110
-176 116 21 21 767 443 771 435 2 -5 -7 -51 -19 -102z m-906 -410 c439 -251
417 -225 238 -272 -183 -47 -394 -35 -574 35 l-68 26 0 219 c0 134 4 217 9
215 6 -1 183 -102 395 -223z"/>
<path d="M5828 5545 c-25 -13 -60 -41 -77 -62 -138 -167 -22 -413 194 -413
140 1 241 94 253 235 3 48 0 71 -18 113 -24 56 -83 116 -136 138 -54 23 -161
17 -216 -11z m208 -70 c64 -27 80 -110 33 -176 l-21 -30 26 -39 c14 -22 26
-44 26 -50 0 -6 -24 -10 -55 -10 l-55 0 -22 45 c-28 58 -52 57 -56 -3 l-3 -42
-50 0 -49 0 0 160 0 160 95 0 c61 0 108 -5 131 -15z"/>
<path d="M5910 5375 c0 -36 0 -36 38 -33 34 3 37 6 37 33 0 27 -3 30 -37 33
-38 3 -38 3 -38 -33z"/>
</g>
</svg>
