<?xml version="1.0" standalone="no"?>
<!DOCTYPE svg PUBLIC "-//W3C//DTD SVG 20010904//EN"
 "http://www.w3.org/TR/2001/REC-SVG-20010904/DTD/svg10.dtd">
<svg version="1.0" xmlns="http://www.w3.org/2000/svg"
 width="700.000000pt" height="700.000000pt" viewBox="0 0 700.000000 700.000000"
 preserveAspectRatio="xMidYMid meet">
<metadata>
Created by potrace 1.14, written by Peter Selinger 2001-2017
</metadata>
<g transform="translate(0.000000,700.000000) scale(0.100000,-0.100000)"
fill="#000000" stroke="none">
<path d="M2190 6993 c-46 -8 -155 -45 -171 -59 -8 -8 -20 -14 -25 -14 -16 -1
-100 -63 -156 -115 -85 -80 -175 -208 -303 -430 -32 -56 -58 -95 -63 -96 -4
-1 -46 -3 -94 -4 -200 -5 -317 -24 -469 -75 -430 -144 -766 -508 -869 -942
-12 -51 -25 -106 -28 -123 -10 -55 -11 -3916 -1 -3980 15 -91 16 -97 29 -145
62 -239 175 -435 350 -610 197 -197 404 -310 681 -372 l104 -23 2300 0 c1265
0 2325 3 2355 7 186 24 351 81 520 180 132 77 316 246 403 370 104 148 183
331 224 518 17 81 18 175 18 2030 0 1070 -3 1970 -7 2000 -25 208 -110 422
-235 597 -199 279 -492 469 -828 538 -96 19 -172 26 -330 28 l-120 2 -105 173
c-119 195 -169 266 -237 336 -100 102 -205 166 -327 197 -67 17 -142 18 -1331
17 -693 0 -1271 -3 -1285 -5z"/>
</g>
</svg>
