<svg xmlns="http://www.w3.org/2000/svg" xmlns:xlink="http://www.w3.org/1999/xlink" width="800" zoomAndPan="magnify" viewBox="0 0 600 599.999999" height="800" preserveAspectRatio="xMidYMid meet" version="1.0"><defs><clipPath id="75894cb569"><path d="M 236 144.980469 L 363 144.980469 L 363 227 L 236 227 Z M 236 144.980469 " clip-rule="nonzero"/></clipPath><clipPath id="1fa06a6259"><path d="M 171 234 L 429 234 L 429 454.730469 L 171 454.730469 Z M 171 234 " clip-rule="nonzero"/></clipPath></defs><g clip-path="url(#75894cb569)"><path fill="#e61b40" d="M 271.476562 226.089844 C 290.398438 223.769531 309.320312 223.769531 327.855469 226.089844 L 361.839844 179.742188 C 363.386719 177.039062 362.226562 172.402344 357.59375 170.859375 L 339.828125 163.90625 L 327.855469 187.464844 C 327.085938 189.011719 324.769531 191.328125 321.292969 189.785156 C 318.976562 188.625 318.203125 185.535156 319.363281 183.21875 L 334.808594 153.480469 C 335.96875 150.773438 332.878906 144.980469 325.925781 144.980469 L 273.40625 144.980469 C 266.457031 144.980469 263.367188 150.003906 264.523438 153.09375 L 280.742188 182.832031 C 281.902344 185.148438 281.128906 188.238281 278.8125 189.398438 C 277.269531 190.167969 273.792969 190.167969 272.246094 187.464844 L 259.503906 163.90625 L 241.738281 171.246094 C 238.265625 172.789062 235.5625 176.652344 237.492188 180.128906 Z M 271.476562 226.089844 " fill-opacity="1" fill-rule="nonzero"/></g><g clip-path="url(#1fa06a6259)"><path fill="#e61b40" d="M 428.261719 384.4375 C 417.835938 302.558594 334.808594 238.832031 328.242188 236.128906 C 325.152344 234.585938 312.410156 234.199219 300.050781 234.199219 C 287.695312 234.199219 274.949219 234.972656 271.863281 236.128906 C 265.296875 238.832031 182.269531 302.558594 171.839844 384.4375 C 169.136719 404.910156 173.386719 421.128906 183.8125 433.101562 C 202.734375 454.730469 236.71875 454.730469 237.105469 454.730469 L 363 454.730469 C 363.386719 454.730469 397.371094 454.34375 416.292969 433.101562 C 426.71875 421.128906 430.582031 404.910156 428.261719 384.4375 Z M 325.539062 332.6875 C 328.242188 332.6875 329.789062 334.617188 329.789062 336.933594 C 329.789062 339.25 327.855469 340.796875 325.539062 340.796875 L 270.703125 340.796875 C 269.929688 343.886719 269.929688 346.976562 269.929688 350.066406 C 269.929688 353.15625 270.316406 356.246094 270.703125 359.335938 L 325.925781 359.335938 C 328.628906 359.335938 330.5625 361.652344 330.5625 363.96875 C 330.5625 366.671875 328.242188 368.605469 325.925781 368.605469 L 273.40625 368.605469 C 279.972656 385.210938 295.804688 396.027344 313.570312 396.414062 C 320.132812 396.414062 326.3125 394.867188 332.105469 392.164062 C 334.421875 391.003906 337.511719 391.777344 338.671875 394.480469 C 339.828125 396.796875 339.054688 399.886719 336.351562 401.046875 C 329.402344 404.523438 321.292969 406.453125 313.570312 406.453125 C 290.785156 406.066406 270.703125 391.003906 263.367188 369.375 L 247.917969 369.375 C 245.214844 369.375 243.285156 367.058594 243.285156 364.742188 C 243.285156 362.039062 245.601562 360.109375 247.917969 360.109375 L 260.664062 360.109375 C 259.503906 353.929688 259.503906 347.75 260.664062 341.570312 L 247.53125 341.570312 C 244.828125 341.570312 242.898438 339.25 242.898438 336.933594 C 242.898438 334.617188 245.214844 332.300781 247.53125 332.300781 L 262.980469 332.300781 C 270.316406 310.671875 290.398438 295.609375 313.183594 295.222656 C 321.292969 295.222656 329.402344 297.152344 336.351562 301.015625 C 338.671875 302.175781 339.828125 305.265625 338.671875 307.582031 C 337.511719 309.898438 334.421875 311.058594 332.105469 309.898438 C 326.3125 306.808594 319.746094 305.265625 313.183594 305.265625 C 295.417969 305.648438 279.972656 316.078125 273.019531 332.300781 Z M 325.539062 332.6875 " fill-opacity="1" fill-rule="nonzero"/></g></svg>