<svg id="instagram_1_1" data-name="instagram (1) 1" xmlns="http://www.w3.org/2000/svg" width="21.76" height="21.76" viewBox="0 0 21.76 21.76">
  <path id="Vector" d="M15.87,0H5.89A5.9,5.9,0,0,0,0,5.89v9.98a5.9,5.9,0,0,0,5.89,5.89h9.98a5.9,5.9,0,0,0,5.89-5.89V5.89A5.9,5.9,0,0,0,15.87,0ZM10.88,16.83a5.95,5.95,0,1,1,5.95-5.95,5.957,5.957,0,0,1-5.95,5.95Zm6.092-10.5a1.758,1.758,0,1,1,1.758-1.758A1.76,1.76,0,0,1,16.972,6.333Z" fill="gray"/>
  <path id="Vector-2" data-name="Vector" d="M4.674,0A4.674,4.674,0,1,0,9.348,4.674,4.68,4.68,0,0,0,4.674,0Z" transform="translate(6.206 6.206)" fill="gray"/>
  <path id="Vector-3" data-name="Vector" d="M.482,0A.482.482,0,1,0,.965.482.483.483,0,0,0,.482,0Z" transform="translate(16.49 4.093)" fill="gray"/>
</svg>
