<svg id="twitter_1_1" data-name="twitter (1) 1" xmlns="http://www.w3.org/2000/svg" width="21.76" height="17.68" viewBox="0 0 21.76 17.68">
  <g id="Group" transform="translate(0)">
    <g id="Group-2" data-name="Group">
      <path id="Vector" d="M21.76,2.093a9.3,9.3,0,0,1-2.57.7A4.436,4.436,0,0,0,21.152.332a8.915,8.915,0,0,1-2.829,1.08,4.461,4.461,0,0,0-7.717,3.051,4.594,4.594,0,0,0,.1,1.017A12.627,12.627,0,0,1,1.515.813,4.462,4.462,0,0,0,2.886,6.776,4.406,4.406,0,0,1,.87,6.226v.049a4.482,4.482,0,0,0,3.574,4.383,4.452,4.452,0,0,1-1.17.147,3.944,3.944,0,0,1-.845-.076A4.5,4.5,0,0,0,6.6,13.837a8.964,8.964,0,0,1-5.531,1.9A8.356,8.356,0,0,1,0,15.678a12.559,12.559,0,0,0,6.844,2,12.61,12.61,0,0,0,12.7-12.694c0-.2-.007-.388-.016-.577A8.9,8.9,0,0,0,21.76,2.093Z" fill="gray"/>
    </g>
  </g>
</svg>
