<svg id="Group_6" data-name="Group 6" xmlns="http://www.w3.org/2000/svg" xmlns:xlink="http://www.w3.org/1999/xlink" width="57.659" height="54.679" viewBox="0 0 57.659 54.679">
  <defs>
    <clipPath id="clip-path">
      <rect id="Rectangle_13" data-name="Rectangle 13" width="57.659" height="54.679" fill="#07d9ff"/>
    </clipPath>
  </defs>
  <g id="Group_5" data-name="Group 5" clip-path="url(#clip-path)">
    <path id="Path_11" data-name="Path 11" d="M43.835,43.232H17.244A17.3,17.3,0,0,1,13.783,8.99a12.975,12.975,0,0,1,24.825,7.536,13.858,13.858,0,1,1,5.227,26.707M26.117,1.647a11.363,11.363,0,0,0-10.9,8.281.825.825,0,0,1-.652.589,15.654,15.654,0,0,0,2.676,31.067H43.835a12.22,12.22,0,1,0-6.3-22.678.823.823,0,0,1-1.173-1.054A11.371,11.371,0,0,0,26.117,1.647" fill="#07d9ff"/>
    <path id="Path_12" data-name="Path 12" d="M69.845,95.439a.824.824,0,0,1-.824-.824V70.126a.824.824,0,0,1,1.647,0V94.615a.824.824,0,0,1-.824.824" transform="translate(-40.595 -40.76)" fill="#07d9ff"/>
    <path id="Path_13" data-name="Path 13" d="M67.685,74.8a.822.822,0,0,1-.584-.242L62.64,70.085l-4.461,4.476A.824.824,0,1,1,57.012,73.4l5.045-5.061a.848.848,0,0,1,1.167,0L68.268,73.4a.824.824,0,0,1-.584,1.405" transform="translate(-33.391 -40.056)" fill="#07d9ff"/>
  </g>
</svg>
