<svg xmlns="http://www.w3.org/2000/svg" xmlns:xlink="http://www.w3.org/1999/xlink" width="800" zoomAndPan="magnify" viewBox="0 0 600 599.999999" height="800" preserveAspectRatio="xMidYMid meet" version="1.0"><defs><clipPath id="5e720b6f33"><path d="M 333 211 L 565.390625 211 L 565.390625 411 L 333 411 Z M 333 211 " clip-rule="nonzero"/></clipPath><clipPath id="129d055580"><path d="M 410 344 L 522 344 L 522 454.730469 L 410 454.730469 Z M 410 344 " clip-rule="nonzero"/></clipPath><clipPath id="2060863519"><path d="M 167 344 L 278 344 L 278 454.730469 L 167 454.730469 Z M 167 344 " clip-rule="nonzero"/></clipPath><clipPath id="0ee2237f10"><path d="M 34.390625 321 L 190 321 L 190 345 L 34.390625 345 Z M 34.390625 321 " clip-rule="nonzero"/></clipPath></defs><path fill="#e61b40" d="M 178.203125 410.425781 L 133.953125 410.425781 C 127.847656 410.425781 122.890625 405.472656 122.890625 399.367188 C 122.890625 393.265625 127.847656 388.3125 133.953125 388.3125 L 178.203125 388.3125 C 184.3125 388.3125 189.265625 393.265625 189.265625 399.367188 C 189.265625 405.472656 184.3125 410.425781 178.203125 410.425781 Z M 178.203125 410.425781 " fill-opacity="1" fill-rule="nonzero"/><g clip-path="url(#5e720b6f33)"><path fill="#e61b40" d="M 537.734375 410.425781 L 510.078125 410.425781 C 503.972656 410.425781 499.015625 405.472656 499.015625 399.367188 C 499.015625 393.265625 503.972656 388.3125 510.078125 388.3125 L 528.554688 388.3125 L 543.464844 308.878906 C 543.265625 268.234375 508.53125 233.515625 465.828125 233.515625 L 393.195312 233.515625 L 357.992188 388.3125 L 421.578125 388.3125 C 427.6875 388.3125 432.640625 393.265625 432.640625 399.367188 C 432.640625 405.472656 427.6875 410.425781 421.578125 410.425781 L 344.140625 410.425781 C 340.78125 410.425781 337.59375 408.898438 335.492188 406.269531 C 333.390625 403.660156 332.59375 400.207031 333.34375 396.9375 L 373.570312 220.027344 C 374.71875 214.960938 379.1875 211.402344 384.367188 211.402344 L 465.828125 211.402344 C 520.722656 211.402344 565.390625 256.050781 565.390625 310.914062 L 548.597656 401.402344 C 547.625 406.644531 543.066406 410.425781 537.734375 410.425781 Z M 537.734375 410.425781 " fill-opacity="1" fill-rule="nonzero"/></g><g clip-path="url(#129d055580)"><path fill="#e61b40" d="M 465.828125 454.652344 C 435.339844 454.652344 410.515625 429.863281 410.515625 399.367188 C 410.515625 368.875 435.339844 344.085938 465.828125 344.085938 C 496.316406 344.085938 521.140625 368.875 521.140625 399.367188 C 521.140625 429.863281 496.316406 454.652344 465.828125 454.652344 Z M 465.828125 366.199219 C 447.53125 366.199219 432.640625 381.082031 432.640625 399.367188 C 432.640625 417.65625 447.53125 432.539062 465.828125 432.539062 C 484.128906 432.539062 499.015625 417.65625 499.015625 399.367188 C 499.015625 381.082031 484.128906 366.199219 465.828125 366.199219 Z M 465.828125 366.199219 " fill-opacity="1" fill-rule="nonzero"/></g><g clip-path="url(#2060863519)"><path fill="#e61b40" d="M 222.453125 454.652344 C 191.964844 454.652344 167.140625 429.863281 167.140625 399.367188 C 167.140625 368.875 191.964844 344.085938 222.453125 344.085938 C 252.941406 344.085938 277.765625 368.875 277.765625 399.367188 C 277.765625 429.863281 252.941406 454.652344 222.453125 454.652344 Z M 222.453125 366.199219 C 204.15625 366.199219 189.265625 381.082031 189.265625 399.367188 C 189.265625 417.65625 204.15625 432.539062 222.453125 432.539062 C 240.753906 432.539062 255.640625 417.65625 255.640625 399.367188 C 255.640625 381.082031 240.753906 366.199219 222.453125 366.199219 Z M 222.453125 366.199219 " fill-opacity="1" fill-rule="nonzero"/></g><path fill="#e61b40" d="M 178.203125 211.402344 L 89.703125 211.402344 C 83.597656 211.402344 78.640625 206.449219 78.640625 200.34375 C 78.640625 194.242188 83.597656 189.289062 89.703125 189.289062 L 178.203125 189.289062 C 184.3125 189.289062 189.265625 194.242188 189.265625 200.34375 C 189.265625 206.449219 184.3125 211.402344 178.203125 211.402344 Z M 178.203125 211.402344 " fill-opacity="1" fill-rule="nonzero"/><path fill="#e61b40" d="M 178.203125 277.742188 L 67.578125 277.742188 C 61.472656 277.742188 56.515625 272.789062 56.515625 266.6875 C 56.515625 260.582031 61.472656 255.628906 67.578125 255.628906 L 178.203125 255.628906 C 184.3125 255.628906 189.265625 260.582031 189.265625 266.6875 C 189.265625 272.789062 184.3125 277.742188 178.203125 277.742188 Z M 178.203125 277.742188 " fill-opacity="1" fill-rule="nonzero"/><g clip-path="url(#0ee2237f10)"><path fill="#e61b40" d="M 178.203125 344.085938 L 45.453125 344.085938 C 39.347656 344.085938 34.390625 339.128906 34.390625 333.027344 C 34.390625 326.925781 39.347656 321.96875 45.453125 321.96875 L 178.203125 321.96875 C 184.3125 321.96875 189.265625 326.925781 189.265625 333.027344 C 189.265625 339.128906 184.3125 344.085938 178.203125 344.085938 Z M 178.203125 344.085938 " fill-opacity="1" fill-rule="nonzero"/></g><path fill="#e61b40" d="M 344.140625 410.425781 L 266.703125 410.425781 C 260.597656 410.425781 255.640625 405.472656 255.640625 399.367188 C 255.640625 393.265625 260.597656 388.3125 266.703125 388.3125 L 335.316406 388.3125 L 385.582031 167.175781 L 133.953125 167.175781 C 127.847656 167.175781 122.890625 162.222656 122.890625 156.117188 C 122.890625 150.015625 127.847656 145.0625 133.953125 145.0625 L 399.453125 145.0625 C 402.816406 145.0625 406.003906 146.585938 408.105469 149.21875 C 410.207031 151.828125 411.003906 155.277344 410.253906 158.550781 L 354.941406 401.800781 C 353.789062 406.863281 349.296875 410.425781 344.140625 410.425781 Z M 344.140625 410.425781 " fill-opacity="1" fill-rule="nonzero"/></svg>