<svg xmlns="http://www.w3.org/2000/svg" xmlns:xlink="http://www.w3.org/1999/xlink" width="800" zoomAndPan="magnify" viewBox="0 0 600 599.999999" height="800" preserveAspectRatio="xMidYMid meet" version="1.0"><defs><clipPath id="d8f6104cab"><path d="M 128.449219 144.980469 L 471.199219 144.980469 L 471.199219 454.730469 L 128.449219 454.730469 Z M 128.449219 144.980469 " clip-rule="nonzero"/></clipPath></defs><g clip-path="url(#d8f6104cab)"><path fill="#e61b40" d="M 463.800781 440.175781 L 406.707031 440.175781 C 427.929688 405.535156 464.765625 353.335938 464.765625 327.433594 C 464.765625 290.652344 436.914062 260.894531 401.78125 257.0625 L 401.78125 187.203125 C 401.78125 183.179688 398.523438 179.921875 394.503906 179.921875 L 367.8125 179.921875 L 367.8125 152.261719 C 367.8125 148.238281 364.550781 144.980469 360.535156 144.980469 L 264.339844 144.980469 C 260.320312 144.980469 257.0625 148.238281 257.0625 152.261719 L 257.0625 179.921875 L 230.339844 179.921875 C 226.320312 179.921875 223.0625 183.179688 223.0625 187.203125 L 223.0625 241.40625 L 188.546875 241.40625 C 184.527344 241.40625 181.269531 244.664062 181.269531 248.683594 L 181.269531 278.3125 L 167.589844 278.3125 C 163.570312 278.3125 160.3125 281.574219 160.3125 285.59375 L 160.3125 440.175781 L 135.925781 440.175781 C 131.90625 440.175781 128.648438 443.433594 128.648438 447.453125 C 128.648438 451.472656 131.90625 454.730469 135.925781 454.730469 C 149.382812 454.730469 447.257812 454.730469 463.800781 454.730469 C 467.816406 454.730469 471.078125 451.472656 471.078125 447.453125 C 471.078125 443.433594 467.816406 440.175781 463.800781 440.175781 Z M 223.0625 440.175781 L 174.867188 440.175781 L 174.867188 292.871094 C 186.109375 292.871094 211.890625 292.871094 223.0625 292.871094 Z M 223.0625 278.3125 L 195.824219 278.3125 L 195.824219 255.964844 L 223.0625 255.964844 Z M 271.617188 159.539062 L 353.257812 159.539062 L 353.257812 179.921875 L 271.617188 179.921875 Z M 322.558594 440.175781 L 302.316406 440.175781 L 302.316406 396.886719 L 322.558594 396.886719 Z M 337.113281 440.175781 L 337.113281 389.609375 C 337.113281 385.589844 333.855469 382.332031 329.835938 382.332031 L 295.039062 382.332031 C 291.019531 382.332031 287.761719 385.589844 287.761719 389.609375 L 287.761719 440.175781 L 237.617188 440.175781 C 237.617188 405.367188 237.617188 228.714844 237.617188 194.480469 L 387.226562 194.480469 L 387.226562 256.957031 C 351.355469 260.367188 323.199219 290.667969 323.199219 327.433594 C 323.199219 346.15625 343.425781 379.824219 369.867188 421.890625 C 374.070312 428.582031 377.941406 434.742188 381.253906 440.175781 Z M 393.972656 360.679688 C 374.316406 360.679688 358.328125 344.679688 358.328125 325.015625 C 358.328125 305.359375 374.316406 289.371094 393.972656 289.371094 C 413.636719 289.371094 429.632812 305.359375 429.632812 325.015625 C 429.632812 344.679688 413.636719 360.679688 393.972656 360.679688 Z M 393.972656 360.679688 " fill-opacity="1" fill-rule="nonzero"/></g><path fill="#e61b40" d="M 393.972656 303.925781 C 382.34375 303.925781 372.882812 313.386719 372.882812 325.015625 C 372.882812 336.652344 382.34375 346.121094 393.972656 346.121094 C 405.609375 346.121094 415.078125 336.652344 415.078125 325.015625 C 415.078125 313.386719 405.609375 303.925781 393.972656 303.925781 Z M 393.972656 303.925781 " fill-opacity="1" fill-rule="nonzero"/><path fill="#e61b40" d="M 304.011719 229.667969 L 267.601562 229.667969 C 263.582031 229.667969 260.324219 232.925781 260.324219 236.945312 L 260.324219 267.5 C 260.324219 271.519531 263.582031 274.777344 267.601562 274.777344 C 271.621094 274.777344 274.878906 271.519531 274.878906 267.5 L 274.878906 244.222656 L 296.734375 244.222656 L 296.734375 267.5 C 296.734375 271.519531 299.992188 274.777344 304.011719 274.777344 C 308.03125 274.777344 311.289062 271.519531 311.289062 267.5 L 311.289062 236.945312 C 311.289062 232.925781 308.03125 229.667969 304.011719 229.667969 Z M 304.011719 229.667969 " fill-opacity="1" fill-rule="nonzero"/><path fill="#e61b40" d="M 304.011719 290.359375 L 267.601562 290.359375 C 263.582031 290.359375 260.324219 293.617188 260.324219 297.636719 L 260.324219 328.210938 C 260.324219 332.230469 263.582031 335.488281 267.601562 335.488281 C 271.621094 335.488281 274.878906 332.230469 274.878906 328.210938 L 274.878906 304.914062 L 296.734375 304.914062 L 296.734375 328.210938 C 296.734375 332.230469 299.992188 335.488281 304.011719 335.488281 C 308.03125 335.488281 311.289062 332.230469 311.289062 328.210938 L 311.289062 297.636719 C 311.289062 293.617188 308.03125 290.359375 304.011719 290.359375 Z M 304.011719 290.359375 " fill-opacity="1" fill-rule="nonzero"/></svg>