<svg xmlns="http://www.w3.org/2000/svg" xmlns:xlink="http://www.w3.org/1999/xlink" width="800" zoomAndPan="magnify" viewBox="0 0 600 599.999999" height="800" preserveAspectRatio="xMidYMid meet" version="1.0"><defs><clipPath id="9d51d649be"><path d="M 85.144531 144.980469 L 514.894531 144.980469 L 514.894531 454.730469 L 85.144531 454.730469 Z M 85.144531 144.980469 " clip-rule="nonzero"/></clipPath><clipPath id="784f16c12e"><path d="M 151 412 L 194 412 L 194 454.730469 L 151 454.730469 Z M 151 412 " clip-rule="nonzero"/></clipPath><clipPath id="695dde7aa4"><path d="M 202 412 L 245 412 L 245 454.730469 L 202 454.730469 Z M 202 412 " clip-rule="nonzero"/></clipPath><clipPath id="8fe99f370d"><path d="M 253 412 L 296 412 L 296 454.730469 L 253 454.730469 Z M 253 412 " clip-rule="nonzero"/></clipPath><clipPath id="ee831ecce9"><path d="M 304 412 L 347 412 L 347 454.730469 L 304 454.730469 Z M 304 412 " clip-rule="nonzero"/></clipPath><clipPath id="9d4aef0f16"><path d="M 355 412 L 398 412 L 398 454.730469 L 355 454.730469 Z M 355 412 " clip-rule="nonzero"/></clipPath><clipPath id="e156752ab3"><path d="M 406 412 L 449 412 L 449 454.730469 L 406 454.730469 Z M 406 412 " clip-rule="nonzero"/></clipPath></defs><g clip-path="url(#9d51d649be)"><path fill="#e61b40" d="M 340.203125 216.625 L 322.210938 216.625 L 322.210938 202.601562 L 340.203125 202.601562 Z M 340.203125 233.011719 L 322.210938 233.011719 L 322.210938 219.882812 L 340.203125 219.882812 Z M 318.953125 216.625 L 301.664062 216.625 L 301.664062 202.601562 L 318.953125 202.601562 Z M 318.953125 233.011719 L 301.664062 233.011719 L 301.664062 219.882812 L 318.953125 219.882812 Z M 298.40625 216.625 L 281.121094 216.625 L 281.121094 202.601562 L 298.40625 202.601562 Z M 298.40625 233.011719 L 281.121094 233.011719 L 281.121094 219.882812 L 298.40625 219.882812 Z M 277.855469 216.625 L 259.753906 216.625 L 259.753906 202.601562 L 277.855469 202.601562 Z M 277.855469 233.011719 L 259.753906 233.011719 L 259.753906 219.882812 L 277.855469 219.882812 Z M 300.035156 144.980469 L 85.207031 249.171875 L 85.207031 454.730469 L 141.523438 454.730469 L 141.523438 254.023438 L 458.542969 254.023438 L 458.542969 454.730469 L 514.863281 454.730469 L 514.863281 249.171875 L 300.035156 144.980469 " fill-opacity="1" fill-rule="nonzero"/></g><path fill="#e61b40" d="M 151.578125 304.199219 L 193.648438 304.199219 L 193.648438 262.175781 L 151.578125 262.175781 L 151.578125 304.199219 " fill-opacity="1" fill-rule="nonzero"/><path fill="#e61b40" d="M 202.546875 304.199219 L 244.617188 304.199219 L 244.617188 262.175781 L 202.546875 262.175781 L 202.546875 304.199219 " fill-opacity="1" fill-rule="nonzero"/><path fill="#e61b40" d="M 151.578125 354.378906 L 193.648438 354.378906 L 193.648438 312.351562 L 151.578125 312.351562 L 151.578125 354.378906 " fill-opacity="1" fill-rule="nonzero"/><path fill="#e61b40" d="M 202.546875 354.378906 L 244.617188 354.378906 L 244.617188 312.351562 L 202.546875 312.351562 L 202.546875 354.378906 " fill-opacity="1" fill-rule="nonzero"/><path fill="#e61b40" d="M 253.515625 354.378906 L 295.582031 354.378906 L 295.582031 312.351562 L 253.515625 312.351562 L 253.515625 354.378906 " fill-opacity="1" fill-rule="nonzero"/><path fill="#e61b40" d="M 151.578125 404.554688 L 193.648438 404.554688 L 193.648438 362.527344 L 151.578125 362.527344 L 151.578125 404.554688 " fill-opacity="1" fill-rule="nonzero"/><path fill="#e61b40" d="M 202.546875 404.554688 L 244.617188 404.554688 L 244.617188 362.527344 L 202.546875 362.527344 L 202.546875 404.554688 " fill-opacity="1" fill-rule="nonzero"/><path fill="#e61b40" d="M 253.515625 404.554688 L 295.582031 404.554688 L 295.582031 362.527344 L 253.515625 362.527344 L 253.515625 404.554688 " fill-opacity="1" fill-rule="nonzero"/><path fill="#e61b40" d="M 304.484375 404.554688 L 346.554688 404.554688 L 346.554688 362.527344 L 304.484375 362.527344 L 304.484375 404.554688 " fill-opacity="1" fill-rule="nonzero"/><g clip-path="url(#784f16c12e)"><path fill="#e61b40" d="M 151.578125 454.730469 L 193.648438 454.730469 L 193.648438 412.707031 L 151.578125 412.707031 L 151.578125 454.730469 " fill-opacity="1" fill-rule="nonzero"/></g><g clip-path="url(#695dde7aa4)"><path fill="#e61b40" d="M 202.546875 454.730469 L 244.617188 454.730469 L 244.617188 412.707031 L 202.546875 412.707031 L 202.546875 454.730469 " fill-opacity="1" fill-rule="nonzero"/></g><g clip-path="url(#8fe99f370d)"><path fill="#e61b40" d="M 253.515625 454.730469 L 295.582031 454.730469 L 295.582031 412.707031 L 253.515625 412.707031 L 253.515625 454.730469 " fill-opacity="1" fill-rule="nonzero"/></g><g clip-path="url(#ee831ecce9)"><path fill="#e61b40" d="M 304.484375 454.730469 L 346.554688 454.730469 L 346.554688 412.707031 L 304.484375 412.707031 L 304.484375 454.730469 " fill-opacity="1" fill-rule="nonzero"/></g><g clip-path="url(#9d4aef0f16)"><path fill="#e61b40" d="M 355.453125 454.730469 L 397.523438 454.730469 L 397.523438 412.707031 L 355.453125 412.707031 L 355.453125 454.730469 " fill-opacity="1" fill-rule="nonzero"/></g><g clip-path="url(#e156752ab3)"><path fill="#e61b40" d="M 406.417969 412.707031 L 406.417969 454.730469 L 448.488281 454.730469 L 448.488281 412.707031 L 406.417969 412.707031 " fill-opacity="1" fill-rule="nonzero"/></g></svg>