<svg id="Group_4" data-name="Group 4" xmlns="http://www.w3.org/2000/svg" xmlns:xlink="http://www.w3.org/1999/xlink" width="22.167" height="22.368" viewBox="0 0 22.167 22.368">
  <defs>
    <clipPath id="clip-path">
      <rect id="Rectangle_3" data-name="Rectangle 3" width="22.167" height="22.368" fill="none"/>
    </clipPath>
  </defs>
  <g id="Group_2" data-name="Group 2" clip-path="url(#clip-path)">
    <path id="Path_2" data-name="Path 2" d="M17.925,2.322H17.34l-.521-.868A2.417,2.417,0,0,0,14.753,0h-7.5A2.443,2.443,0,0,0,5.185,1.454l-.521.868H4.241A4.254,4.254,0,0,0,0,6.563V18.127a4.254,4.254,0,0,0,4.241,4.241H17.925a4.254,4.254,0,0,0,4.241-4.241V6.563a4.254,4.254,0,0,0-4.241-4.241" fill="gray"/>
    <path id="Path_3" data-name="Path 3" d="M110.666,100.984l1.213-.7a2.928,2.928,0,0,0-1.213-2.19Z" transform="translate(-97.778 -86.67)" fill="#fff" fill-rule="evenodd"/>
    <path id="Path_4" data-name="Path 4" d="M99.958,122.23l.856-.494h0l1.2-.7a2.93,2.93,0,0,1-1.29,2.146l-1.213-.7Z" transform="translate(-87.926 -106.944)" fill="#fff" fill-rule="evenodd"/>
    <path id="Path_5" data-name="Path 5" d="M84.813,129.061l.443.256.856.494h0l1.205.7a2.936,2.936,0,0,1-2.5-.044Z" transform="translate(-74.936 -114.031)" fill="#fff" fill-rule="evenodd"/>
    <path id="Path_6" data-name="Path 6" d="M72.06,114.134l-1.213.7a2.928,2.928,0,0,0,1.213,2.19Z" transform="translate(-62.596 -100.842)" fill="#fff" fill-rule="evenodd"/>
    <path id="Path_7" data-name="Path 7" d="M72.981,98.54l-.856.494-1.2.7a2.93,2.93,0,0,1,1.29-2.146l1.213.7Z" transform="translate(-62.661 -86.22)" fill="#fff" fill-rule="evenodd"/>
    <path id="Path_8" data-name="Path 8" d="M86.823,93.353a2.917,2.917,0,0,1,1.3.3v1.4l-.443-.256-.856-.494-1.2-.7a2.919,2.919,0,0,1,1.2-.259" transform="translate(-75.647 -82.481)" fill="#fff" fill-rule="evenodd"/>
    <path id="Path_9" data-name="Path 9" d="M153.55,36.374a1.156,1.156,0,0,1,.415,1.569,1.154,1.154,0,0,1-.417.424,1.153,1.153,0,0,1-1.161,0,1.157,1.157,0,0,1-.412-1.568,1.159,1.159,0,0,1,.415-.424,1.109,1.109,0,0,1,.581-.158,1.121,1.121,0,0,1,.578.154m-.171,1.7a.8.8,0,0,0,.293-.3.814.814,0,0,0,.107-.408.8.8,0,0,0-.107-.405.813.813,0,0,0-.291-.295.784.784,0,0,0-.409-.11.8.8,0,0,0-.7.409.814.814,0,0,0-.107.408.8.8,0,0,0,.107.405.814.814,0,0,0,.29.295.773.773,0,0,0,.407.11.8.8,0,0,0,.414-.11m-.095-.568.2.332H153.1l-.122-.264h-.112v.264h-.339V36.82h.478a.493.493,0,0,1,.322.095.327.327,0,0,1,.115.268.35.35,0,0,1-.163.325m-.414-.19h.139a.111.111,0,0,0,.085-.032.148.148,0,0,0,0-.18.111.111,0,0,0-.085-.032h-.139Z" transform="translate(-134.142 -32.002)" fill="#fff"/>
    <path id="Path_10" data-name="Path 10" d="M26.688,67.6a.512.512,0,0,0,.211.1.52.52,0,0,0,.528-.826l-3.363-3.4a4.176,4.176,0,0,1,5.907-5.9.516.516,0,0,0,.73,0l.023-.023a4.176,4.176,0,0,1,5.914,5.9l-1.152,1.107a.514.514,0,0,0-.08.177.52.52,0,0,0,.878.482l0,0,.327-.314V64.89l.788-.757a5.222,5.222,0,0,0,.824-1.072v-.021a5.209,5.209,0,0,0-7.52-6.812l-.372.259-.374-.256a5.209,5.209,0,0,0-6.625,7.98Z" transform="translate(-19.273 -48.861)" fill="#fff"/>
  </g>
</svg>
