<svg width="589" height="419" viewBox="0 0 589 419" fill="none" xmlns="http://www.w3.org/2000/svg">
<g opacity="0.1" clip-path="url(#clip0_1_333)">
<path fill-rule="evenodd" clip-rule="evenodd" d="M331.36 265.304L369.601 241.955C368.744 227.56 364.869 213.545 358.255 200.926C351.641 188.306 342.455 177.398 331.36 168.99V265.304Z" fill="#F48120"/>
<path fill-rule="evenodd" clip-rule="evenodd" d="M304.359 297.675L331.36 281.224L369.036 258.074C367.687 272.423 363.337 286.276 356.3 298.631C349.263 310.986 339.715 321.535 328.346 329.514L290.105 306.165L304.359 297.675Z" fill="#FFCA05"/>
<path fill-rule="evenodd" clip-rule="evenodd" d="M236.416 289.184L250.419 297.675L277.357 314.125L315.41 337.341C303.442 343.005 290.472 345.922 277.357 345.898C263.155 345.937 249.138 342.486 236.416 335.816V289.184Z" fill="#00A551"/>
<path fill-rule="evenodd" clip-rule="evenodd" d="M223.418 231.276L185.114 254.559C185.995 268.956 189.888 282.967 196.511 295.584C203.135 308.201 212.324 319.11 223.418 327.524V231.276Z" fill="#00ADEE"/>
<path fill-rule="evenodd" clip-rule="evenodd" d="M250.419 198.906L223.418 215.356L185.742 238.506C187.047 224.191 191.339 210.36 198.31 198.007C205.28 185.655 214.756 175.088 226.055 167.066L264.359 190.349L250.419 198.906Z" fill="#C5579F"/>
<path fill-rule="evenodd" clip-rule="evenodd" d="M277.357 150.616C291.586 150.592 305.624 154.066 318.361 160.765V207.197L304.359 198.707L277.357 182.256L239.368 159.04C251.326 153.431 264.273 150.56 277.357 150.616Z" fill="#EC1C24"/>
<path d="M570.099 -62.9075C575.017 -59.8536 579.091 -55.4895 581.912 -50.2513C584.733 -45.0131 586.202 -39.0844 586.174 -33.058C586.199 -27.0056 584.704 -21.0546 581.842 -15.8116C579.017 -10.5751 574.948 -6.20805 570.036 -3.14214C566.332 -0.820679 562.227 0.69738 557.961 1.32325C553.695 1.94912 549.354 1.67026 545.191 0.50296C541.028 -0.664337 537.127 -2.69664 533.717 -5.47511C530.306 -8.25358 527.454 -11.7225 525.328 -15.6789C522.486 -20.9189 520.99 -26.853 520.99 -32.8921C520.99 -38.9312 522.486 -44.8653 525.328 -50.1053C528.166 -55.3478 532.231 -59.7329 537.133 -62.8411C542.142 -65.9041 547.828 -67.517 553.616 -67.517C559.404 -67.517 565.09 -65.9041 570.099 -62.8411V-62.9075ZM565.139 -11.898C568.636 -14.0466 571.532 -17.1376 573.529 -20.8553C575.525 -24.5729 576.552 -28.7839 576.504 -33.058C576.551 -37.3169 575.51 -41.5105 573.49 -45.1968C571.483 -48.8745 568.605 -51.9376 565.139 -54.0853C561.613 -56.259 557.604 -57.4045 553.522 -57.4045C549.44 -57.4045 545.431 -56.259 541.905 -54.0853C538.468 -51.9344 535.647 -48.8398 533.742 -45.1304C531.737 -41.3894 530.698 -37.1577 530.728 -32.859C530.7 -28.6391 531.717 -24.4849 533.677 -20.8082C535.638 -17.1315 538.474 -14.0599 541.905 -11.898C545.384 -9.6645 549.389 -8.51479 553.459 -8.58138C557.568 -8.51839 561.613 -9.66693 565.139 -11.898ZM562.438 -28.879L568.215 -18.9292H557.415L553.961 -26.8891H550.759V-18.9292H541.152V-49.5747H554.715C557.989 -49.7559 561.224 -48.7495 563.883 -46.7224C564.974 -45.7249 565.835 -44.4775 566.401 -43.0751C566.967 -41.6727 567.222 -40.1523 567.148 -38.6299C567.289 -36.7114 566.931 -34.7887 566.112 -33.07C565.293 -31.3512 564.044 -29.9019 562.501 -28.879H562.438ZM550.696 -34.5836H554.652C555.094 -34.5583 555.536 -34.6342 555.948 -34.8059C556.36 -34.9776 556.732 -35.2412 557.038 -35.5786C557.649 -36.3072 557.965 -37.2599 557.917 -38.2319C557.968 -39.2243 557.653 -40.1989 557.038 -40.9515C556.732 -41.2889 556.36 -41.5525 555.948 -41.7242C555.536 -41.8959 555.094 -41.9717 554.652 -41.9465H550.696V-34.5836Z" fill="#ED3452"/>
<path d="M158.804 412.761C161.925 415.423 165.862 416.784 169.869 416.585C173.876 416.387 177.675 414.642 180.546 411.683C183.417 408.724 185.161 404.754 185.448 400.528C185.734 396.301 184.543 392.11 182.1 388.749L76.0425 275.453C53.642 248.9 41.7049 214.302 42.6782 178.75C43.6515 143.198 57.4614 109.386 81.2771 84.2451C105.093 59.1042 137.11 44.5387 170.766 43.5345C204.422 42.5304 237.166 55.1636 262.287 78.8445C265.347 82.0647 269.49 83.8728 273.81 83.8728C278.129 83.8728 282.272 82.0647 285.332 78.8445L286.023 78.0485C311.101 54.2065 343.875 41.4255 377.603 42.3354C411.331 43.2452 443.445 57.7769 467.338 82.9399C491.231 108.103 505.085 141.983 506.048 177.609C507.012 213.234 495.012 247.895 472.519 274.458L436.224 311.339C435.025 313.112 434.171 315.118 433.712 317.242C432.785 320.954 433.051 324.886 434.47 328.421C435.889 331.955 438.379 334.891 441.55 336.767C444.72 338.643 448.391 339.353 451.986 338.784C455.58 338.216 458.893 336.401 461.404 333.627L471.702 323.212V322.682L496.82 297.475C506.918 286.826 515.658 274.829 522.816 261.789V260.661C540.787 226.392 547.256 186.708 541.171 148.063C535.086 109.417 516.806 74.0824 489.301 47.8027C461.797 21.523 426.686 5.84397 389.678 3.31465C352.669 0.785331 315.938 11.5545 285.458 33.8713L273.778 42.4944L261.973 34.0039C237.317 16.1389 208.508 5.73037 178.659 3.90272C148.811 2.07506 119.056 8.89778 92.6112 23.6338C66.166 38.3698 44.0352 60.4589 28.6096 87.5148C13.184 114.571 5.04993 145.565 5.08624 177.149C4.99879 199.929 9.19443 222.501 17.4297 243.555C25.665 264.609 37.7761 283.726 53.0602 299.797L158.804 412.761Z" fill="#EE4343"/>
</g>
<defs>
<clipPath id="clip0_1_333">
<rect width="589" height="714" fill="white" transform="translate(0 -71)"/>
</clipPath>
</defs>
</svg>
